<mxfile host="app.diagrams.net" agent="Mozilla/5.0 (Windows NT 10.0; Win64; x64) AppleWebKit/537.36 (KHTML, like Gecko) Chrome/136.0.0.0 Safari/537.36" version="27.0.6">
  <diagram name="1 oldal" id="k9Oqp2oyT7CyN6iQRObQ">
    <mxGraphModel dx="3169" dy="1651" grid="1" gridSize="10" guides="1" tooltips="1" connect="1" arrows="1" fold="1" page="1" pageScale="1" pageWidth="2336" pageHeight="1654" math="0" shadow="0">
      <root>
        <mxCell id="0" />
        <mxCell id="1" parent="0" />
        <mxCell id="Pr3GQYdpATsWxthIxdoF-1" value="&lt;font style=&quot;vertical-align: inherit;&quot;&gt;&lt;font style=&quot;vertical-align: inherit;&quot;&gt;&lt;font style=&quot;vertical-align: inherit;&quot;&gt;&lt;font style=&quot;vertical-align: inherit;&quot;&gt;Rendeles&lt;/font&gt;&lt;/font&gt;&lt;/font&gt;&lt;/font&gt;" style="ellipse;shape=doubleEllipse;margin=3;whiteSpace=wrap;html=1;align=center;" vertex="1" parent="1">
          <mxGeometry x="2000" y="710" width="100" height="40" as="geometry" />
        </mxCell>
        <mxCell id="Pr3GQYdpATsWxthIxdoF-2" value="&lt;font style=&quot;vertical-align: inherit;&quot;&gt;&lt;font style=&quot;vertical-align: inherit;&quot;&gt;Vendeg&lt;/font&gt;&lt;/font&gt;" style="ellipse;shape=doubleEllipse;margin=3;whiteSpace=wrap;html=1;align=center;" vertex="1" parent="1">
          <mxGeometry x="1720" y="710" width="100" height="40" as="geometry" />
        </mxCell>
        <mxCell id="Pr3GQYdpATsWxthIxdoF-3" value="&lt;font style=&quot;vertical-align: inherit;&quot;&gt;&lt;font style=&quot;vertical-align: inherit;&quot;&gt;Gyakornok&lt;/font&gt;&lt;/font&gt;" style="ellipse;shape=doubleEllipse;margin=3;whiteSpace=wrap;html=1;align=center;" vertex="1" parent="1">
          <mxGeometry x="1340" y="710" width="100" height="40" as="geometry" />
        </mxCell>
        <mxCell id="Pr3GQYdpATsWxthIxdoF-4" value="&lt;font style=&quot;vertical-align: inherit;&quot;&gt;&lt;font style=&quot;vertical-align: inherit;&quot;&gt;Szakacs&lt;/font&gt;&lt;/font&gt;" style="ellipse;shape=doubleEllipse;margin=3;whiteSpace=wrap;html=1;align=center;" vertex="1" parent="1">
          <mxGeometry x="1000" y="710" width="100" height="40" as="geometry" />
        </mxCell>
        <mxCell id="Pr3GQYdpATsWxthIxdoF-5" value="&lt;font style=&quot;vertical-align: inherit;&quot;&gt;&lt;font style=&quot;vertical-align: inherit;&quot;&gt;&lt;font style=&quot;vertical-align: inherit;&quot;&gt;&lt;font style=&quot;vertical-align: inherit;&quot;&gt;Foszakacs&lt;/font&gt;&lt;/font&gt;&lt;/font&gt;&lt;/font&gt;" style="ellipse;shape=doubleEllipse;margin=3;whiteSpace=wrap;html=1;align=center;" vertex="1" parent="1">
          <mxGeometry x="650" y="710" width="100" height="40" as="geometry" />
        </mxCell>
        <mxCell id="Pr3GQYdpATsWxthIxdoF-6" value="&lt;font style=&quot;vertical-align: inherit;&quot;&gt;&lt;font style=&quot;vertical-align: inherit;&quot;&gt;Etterem&lt;/font&gt;&lt;/font&gt;" style="ellipse;shape=doubleEllipse;margin=3;whiteSpace=wrap;html=1;align=center;" vertex="1" parent="1">
          <mxGeometry x="270" y="710" width="100" height="40" as="geometry" />
        </mxCell>
        <mxCell id="Pr3GQYdpATsWxthIxdoF-10" value="&lt;font style=&quot;vertical-align: inherit;&quot;&gt;&lt;font style=&quot;vertical-align: inherit;&quot;&gt;Vendeglatas&lt;/font&gt;&lt;/font&gt;" style="ellipse;whiteSpace=wrap;html=1;align=center;" vertex="1" parent="1">
          <mxGeometry x="1090" y="480" width="100" height="40" as="geometry" />
        </mxCell>
        <mxCell id="Pr3GQYdpATsWxthIxdoF-11" value="" style="endArrow=none;html=1;rounded=0;exitX=0.5;exitY=1;exitDx=0;exitDy=0;entryX=0.5;entryY=0;entryDx=0;entryDy=0;" edge="1" parent="1" source="Pr3GQYdpATsWxthIxdoF-10" target="Pr3GQYdpATsWxthIxdoF-1">
          <mxGeometry relative="1" as="geometry">
            <mxPoint x="1080" y="890" as="sourcePoint" />
            <mxPoint x="1240" y="890" as="targetPoint" />
          </mxGeometry>
        </mxCell>
        <mxCell id="Pr3GQYdpATsWxthIxdoF-12" value="" style="endArrow=none;html=1;rounded=0;entryX=0.5;entryY=0;entryDx=0;entryDy=0;exitX=0.5;exitY=1;exitDx=0;exitDy=0;" edge="1" parent="1" source="Pr3GQYdpATsWxthIxdoF-10" target="Pr3GQYdpATsWxthIxdoF-2">
          <mxGeometry relative="1" as="geometry">
            <mxPoint x="1080" y="890" as="sourcePoint" />
            <mxPoint x="1240" y="890" as="targetPoint" />
          </mxGeometry>
        </mxCell>
        <mxCell id="Pr3GQYdpATsWxthIxdoF-13" value="" style="endArrow=none;html=1;rounded=0;exitX=0.5;exitY=1;exitDx=0;exitDy=0;entryX=0.5;entryY=0;entryDx=0;entryDy=0;" edge="1" parent="1" source="Pr3GQYdpATsWxthIxdoF-10" target="Pr3GQYdpATsWxthIxdoF-3">
          <mxGeometry relative="1" as="geometry">
            <mxPoint x="1080" y="890" as="sourcePoint" />
            <mxPoint x="1240" y="890" as="targetPoint" />
          </mxGeometry>
        </mxCell>
        <mxCell id="Pr3GQYdpATsWxthIxdoF-14" value="" style="endArrow=none;html=1;rounded=0;exitX=0.5;exitY=1;exitDx=0;exitDy=0;entryX=0.5;entryY=0;entryDx=0;entryDy=0;" edge="1" parent="1" source="Pr3GQYdpATsWxthIxdoF-10" target="Pr3GQYdpATsWxthIxdoF-4">
          <mxGeometry relative="1" as="geometry">
            <mxPoint x="1080" y="890" as="sourcePoint" />
            <mxPoint x="1240" y="890" as="targetPoint" />
          </mxGeometry>
        </mxCell>
        <mxCell id="Pr3GQYdpATsWxthIxdoF-15" value="" style="endArrow=none;html=1;rounded=0;exitX=0.5;exitY=1;exitDx=0;exitDy=0;entryX=0.5;entryY=0;entryDx=0;entryDy=0;" edge="1" parent="1" source="Pr3GQYdpATsWxthIxdoF-10" target="Pr3GQYdpATsWxthIxdoF-5">
          <mxGeometry relative="1" as="geometry">
            <mxPoint x="1080" y="890" as="sourcePoint" />
            <mxPoint x="1240" y="890" as="targetPoint" />
          </mxGeometry>
        </mxCell>
        <mxCell id="Pr3GQYdpATsWxthIxdoF-16" value="" style="endArrow=none;html=1;rounded=0;exitX=0.5;exitY=1;exitDx=0;exitDy=0;entryX=0.5;entryY=0;entryDx=0;entryDy=0;" edge="1" parent="1" source="Pr3GQYdpATsWxthIxdoF-10" target="Pr3GQYdpATsWxthIxdoF-6">
          <mxGeometry relative="1" as="geometry">
            <mxPoint x="1080" y="890" as="sourcePoint" />
            <mxPoint x="1240" y="890" as="targetPoint" />
          </mxGeometry>
        </mxCell>
        <mxCell id="Pr3GQYdpATsWxthIxdoF-20" value="&lt;u&gt;Fkod&lt;/u&gt;" style="shape=rhombus;perimeter=rhombusPerimeter;whiteSpace=wrap;html=1;align=center;" vertex="1" parent="1">
          <mxGeometry x="530" y="700" width="70" height="60" as="geometry" />
        </mxCell>
        <mxCell id="Pr3GQYdpATsWxthIxdoF-21" value="&lt;u&gt;Ekod&lt;/u&gt;" style="shape=rhombus;perimeter=rhombusPerimeter;whiteSpace=wrap;html=1;align=center;" vertex="1" parent="1">
          <mxGeometry x="70" y="700" width="70" height="60" as="geometry" />
        </mxCell>
        <mxCell id="Pr3GQYdpATsWxthIxdoF-22" value="E_V_V" style="shape=rhombus;perimeter=rhombusPerimeter;whiteSpace=wrap;html=1;align=center;" vertex="1" parent="1">
          <mxGeometry x="1870" y="700" width="70" height="60" as="geometry" />
        </mxCell>
        <mxCell id="Pr3GQYdpATsWxthIxdoF-23" value="&lt;u&gt;Vkod&lt;/u&gt;" style="shape=rhombus;perimeter=rhombusPerimeter;whiteSpace=wrap;html=1;align=center;" vertex="1" parent="1">
          <mxGeometry x="1590" y="700" width="70" height="60" as="geometry" />
        </mxCell>
        <mxCell id="Pr3GQYdpATsWxthIxdoF-24" value="E_GY" style="shape=rhombus;perimeter=rhombusPerimeter;whiteSpace=wrap;html=1;align=center;" vertex="1" parent="1">
          <mxGeometry x="1480" y="700" width="70" height="60" as="geometry" />
        </mxCell>
        <mxCell id="Pr3GQYdpATsWxthIxdoF-25" value="&lt;u&gt;Gykod&lt;/u&gt;" style="shape=rhombus;perimeter=rhombusPerimeter;whiteSpace=wrap;html=1;align=center;" vertex="1" parent="1">
          <mxGeometry x="1230" y="700" width="70" height="60" as="geometry" />
        </mxCell>
        <mxCell id="Pr3GQYdpATsWxthIxdoF-26" value="&lt;u&gt;Szkod&lt;/u&gt;" style="shape=rhombus;perimeter=rhombusPerimeter;whiteSpace=wrap;html=1;align=center;" vertex="1" parent="1">
          <mxGeometry x="900" y="700" width="70" height="60" as="geometry" />
        </mxCell>
        <mxCell id="Pr3GQYdpATsWxthIxdoF-27" value="E_V_V" style="shape=rhombus;perimeter=rhombusPerimeter;whiteSpace=wrap;html=1;align=center;" vertex="1" parent="1">
          <mxGeometry x="2163.75" y="700" width="70" height="60" as="geometry" />
        </mxCell>
        <mxCell id="Pr3GQYdpATsWxthIxdoF-28" value="E_sz" style="shape=rhombus;perimeter=rhombusPerimeter;whiteSpace=wrap;html=1;align=center;" vertex="1" parent="1">
          <mxGeometry x="1125" y="700" width="70" height="60" as="geometry" />
        </mxCell>
        <mxCell id="Pr3GQYdpATsWxthIxdoF-29" value="E_F" style="shape=rhombus;perimeter=rhombusPerimeter;whiteSpace=wrap;html=1;align=center;" vertex="1" parent="1">
          <mxGeometry x="800" y="700" width="70" height="60" as="geometry" />
        </mxCell>
        <mxCell id="Pr3GQYdpATsWxthIxdoF-35" value="Hazszam" style="ellipse;whiteSpace=wrap;html=1;align=center;" vertex="1" parent="1">
          <mxGeometry x="380" y="1010" width="100" height="40" as="geometry" />
        </mxCell>
        <mxCell id="Pr3GQYdpATsWxthIxdoF-36" value="Utca" style="ellipse;whiteSpace=wrap;html=1;align=center;" vertex="1" parent="1">
          <mxGeometry x="270" y="1010" width="100" height="40" as="geometry" />
        </mxCell>
        <mxCell id="Pr3GQYdpATsWxthIxdoF-37" value="VÃ¡ros" style="ellipse;whiteSpace=wrap;html=1;align=center;" vertex="1" parent="1">
          <mxGeometry x="160" y="1010" width="100" height="40" as="geometry" />
        </mxCell>
        <mxCell id="Pr3GQYdpATsWxthIxdoF-38" value="Csillag" style="ellipse;whiteSpace=wrap;html=1;align=center;" vertex="1" parent="1">
          <mxGeometry x="420" y="840" width="100" height="40" as="geometry" />
        </mxCell>
        <mxCell id="Pr3GQYdpATsWxthIxdoF-39" value="Cim" style="ellipse;whiteSpace=wrap;html=1;align=center;" vertex="1" parent="1">
          <mxGeometry x="270" y="840" width="100" height="40" as="geometry" />
        </mxCell>
        <mxCell id="Pr3GQYdpATsWxthIxdoF-40" value="NEv" style="ellipse;whiteSpace=wrap;html=1;align=center;" vertex="1" parent="1">
          <mxGeometry x="110" y="840" width="100" height="40" as="geometry" />
        </mxCell>
        <mxCell id="Pr3GQYdpATsWxthIxdoF-43" value="Reszleg" style="ellipse;whiteSpace=wrap;html=1;align=center;fontStyle=4;" vertex="1" parent="1">
          <mxGeometry x="963.75" y="862.5" width="100" height="40" as="geometry" />
        </mxCell>
        <mxCell id="Pr3GQYdpATsWxthIxdoF-44" value="Nev" style="ellipse;whiteSpace=wrap;html=1;align=center;fontStyle=4;" vertex="1" parent="1">
          <mxGeometry x="890" y="807" width="100" height="40" as="geometry" />
        </mxCell>
        <mxCell id="Pr3GQYdpATsWxthIxdoF-45" value="Vegzettsegh" style="ellipse;shape=doubleEllipse;margin=3;whiteSpace=wrap;html=1;align=center;" vertex="1" parent="1">
          <mxGeometry x="1050" y="807" width="100" height="40" as="geometry" />
        </mxCell>
        <mxCell id="Pr3GQYdpATsWxthIxdoF-49" value="" style="endArrow=none;html=1;rounded=0;exitX=0.5;exitY=1;exitDx=0;exitDy=0;entryX=0.5;entryY=0;entryDx=0;entryDy=0;" edge="1" parent="1" source="Pr3GQYdpATsWxthIxdoF-39" target="Pr3GQYdpATsWxthIxdoF-37">
          <mxGeometry relative="1" as="geometry">
            <mxPoint x="1140" y="940" as="sourcePoint" />
            <mxPoint x="1300" y="940" as="targetPoint" />
          </mxGeometry>
        </mxCell>
        <mxCell id="Pr3GQYdpATsWxthIxdoF-50" value="" style="endArrow=none;html=1;rounded=0;exitX=0.5;exitY=1;exitDx=0;exitDy=0;entryX=0.5;entryY=0;entryDx=0;entryDy=0;" edge="1" parent="1" source="Pr3GQYdpATsWxthIxdoF-39" target="Pr3GQYdpATsWxthIxdoF-35">
          <mxGeometry relative="1" as="geometry">
            <mxPoint x="1140" y="940" as="sourcePoint" />
            <mxPoint x="1300" y="940" as="targetPoint" />
          </mxGeometry>
        </mxCell>
        <mxCell id="Pr3GQYdpATsWxthIxdoF-51" value="" style="endArrow=none;html=1;rounded=0;exitX=0.5;exitY=1;exitDx=0;exitDy=0;entryX=0.5;entryY=0;entryDx=0;entryDy=0;" edge="1" parent="1" source="Pr3GQYdpATsWxthIxdoF-39" target="Pr3GQYdpATsWxthIxdoF-36">
          <mxGeometry relative="1" as="geometry">
            <mxPoint x="1140" y="940" as="sourcePoint" />
            <mxPoint x="1300" y="940" as="targetPoint" />
          </mxGeometry>
        </mxCell>
        <mxCell id="Pr3GQYdpATsWxthIxdoF-52" value="" style="endArrow=none;html=1;rounded=0;exitX=0.5;exitY=1;exitDx=0;exitDy=0;entryX=0.5;entryY=0;entryDx=0;entryDy=0;" edge="1" parent="1" source="Pr3GQYdpATsWxthIxdoF-6" target="Pr3GQYdpATsWxthIxdoF-38">
          <mxGeometry relative="1" as="geometry">
            <mxPoint x="1140" y="940" as="sourcePoint" />
            <mxPoint x="1300" y="940" as="targetPoint" />
          </mxGeometry>
        </mxCell>
        <mxCell id="Pr3GQYdpATsWxthIxdoF-53" value="" style="endArrow=none;html=1;rounded=0;exitX=0.5;exitY=1;exitDx=0;exitDy=0;entryX=0.5;entryY=0;entryDx=0;entryDy=0;" edge="1" parent="1" source="Pr3GQYdpATsWxthIxdoF-6" target="Pr3GQYdpATsWxthIxdoF-39">
          <mxGeometry relative="1" as="geometry">
            <mxPoint x="1140" y="940" as="sourcePoint" />
            <mxPoint x="1300" y="940" as="targetPoint" />
          </mxGeometry>
        </mxCell>
        <mxCell id="Pr3GQYdpATsWxthIxdoF-54" value="" style="endArrow=none;html=1;rounded=0;exitX=0.5;exitY=1;exitDx=0;exitDy=0;entryX=0.5;entryY=0;entryDx=0;entryDy=0;" edge="1" parent="1" source="Pr3GQYdpATsWxthIxdoF-6" target="Pr3GQYdpATsWxthIxdoF-40">
          <mxGeometry relative="1" as="geometry">
            <mxPoint x="1140" y="940" as="sourcePoint" />
            <mxPoint x="1300" y="940" as="targetPoint" />
          </mxGeometry>
        </mxCell>
        <mxCell id="Pr3GQYdpATsWxthIxdoF-55" value="" style="whiteSpace=wrap;html=1;align=center;rotation=90;" vertex="1" parent="1">
          <mxGeometry x="136.25" y="902.5" width="47.5" height="32.5" as="geometry" />
        </mxCell>
        <mxCell id="Pr3GQYdpATsWxthIxdoF-57" value="" style="whiteSpace=wrap;html=1;align=center;rotation=90;" vertex="1" parent="1">
          <mxGeometry x="446.25" y="902.5" width="47.5" height="32.5" as="geometry" />
        </mxCell>
        <mxCell id="Pr3GQYdpATsWxthIxdoF-58" value="" style="whiteSpace=wrap;html=1;align=center;rotation=90;" vertex="1" parent="1">
          <mxGeometry x="406.25" y="1070" width="47.5" height="32.5" as="geometry" />
        </mxCell>
        <mxCell id="Pr3GQYdpATsWxthIxdoF-59" value="" style="whiteSpace=wrap;html=1;align=center;rotation=90;" vertex="1" parent="1">
          <mxGeometry x="296.25" y="1070" width="47.5" height="32.5" as="geometry" />
        </mxCell>
        <mxCell id="Pr3GQYdpATsWxthIxdoF-60" value="" style="whiteSpace=wrap;html=1;align=center;rotation=90;" vertex="1" parent="1">
          <mxGeometry x="186.25" y="1070" width="47.5" height="32.5" as="geometry" />
        </mxCell>
        <mxCell id="Pr3GQYdpATsWxthIxdoF-61" value="" style="endArrow=none;html=1;rounded=0;exitX=0.5;exitY=1;exitDx=0;exitDy=0;entryX=0;entryY=0.5;entryDx=0;entryDy=0;" edge="1" parent="1" source="Pr3GQYdpATsWxthIxdoF-40" target="Pr3GQYdpATsWxthIxdoF-55">
          <mxGeometry relative="1" as="geometry">
            <mxPoint x="740" y="940" as="sourcePoint" />
            <mxPoint x="900" y="940" as="targetPoint" />
          </mxGeometry>
        </mxCell>
        <mxCell id="Pr3GQYdpATsWxthIxdoF-62" value="" style="endArrow=none;html=1;rounded=0;exitX=0.5;exitY=1;exitDx=0;exitDy=0;entryX=0;entryY=0.5;entryDx=0;entryDy=0;" edge="1" parent="1" source="Pr3GQYdpATsWxthIxdoF-37" target="Pr3GQYdpATsWxthIxdoF-60">
          <mxGeometry relative="1" as="geometry">
            <mxPoint x="740" y="940" as="sourcePoint" />
            <mxPoint x="900" y="940" as="targetPoint" />
          </mxGeometry>
        </mxCell>
        <mxCell id="Pr3GQYdpATsWxthIxdoF-63" value="" style="endArrow=none;html=1;rounded=0;exitX=0.5;exitY=1;exitDx=0;exitDy=0;entryX=0;entryY=0.5;entryDx=0;entryDy=0;" edge="1" parent="1" source="Pr3GQYdpATsWxthIxdoF-36" target="Pr3GQYdpATsWxthIxdoF-59">
          <mxGeometry relative="1" as="geometry">
            <mxPoint x="740" y="940" as="sourcePoint" />
            <mxPoint x="900" y="940" as="targetPoint" />
          </mxGeometry>
        </mxCell>
        <mxCell id="Pr3GQYdpATsWxthIxdoF-64" value="" style="endArrow=none;html=1;rounded=0;exitX=0.5;exitY=1;exitDx=0;exitDy=0;entryX=0;entryY=0.5;entryDx=0;entryDy=0;" edge="1" parent="1" source="Pr3GQYdpATsWxthIxdoF-35" target="Pr3GQYdpATsWxthIxdoF-58">
          <mxGeometry relative="1" as="geometry">
            <mxPoint x="740" y="940" as="sourcePoint" />
            <mxPoint x="900" y="940" as="targetPoint" />
          </mxGeometry>
        </mxCell>
        <mxCell id="Pr3GQYdpATsWxthIxdoF-65" value="" style="endArrow=none;html=1;rounded=0;exitX=0.5;exitY=1;exitDx=0;exitDy=0;entryX=0;entryY=0.5;entryDx=0;entryDy=0;" edge="1" parent="1" source="Pr3GQYdpATsWxthIxdoF-38" target="Pr3GQYdpATsWxthIxdoF-57">
          <mxGeometry relative="1" as="geometry">
            <mxPoint x="740" y="940" as="sourcePoint" />
            <mxPoint x="900" y="940" as="targetPoint" />
          </mxGeometry>
        </mxCell>
        <mxCell id="Pr3GQYdpATsWxthIxdoF-67" value="Nev" style="ellipse;whiteSpace=wrap;html=1;align=center;" vertex="1" parent="1">
          <mxGeometry x="540" y="807" width="100" height="40" as="geometry" />
        </mxCell>
        <mxCell id="Pr3GQYdpATsWxthIxdoF-68" value="Eletkor" style="ellipse;whiteSpace=wrap;html=1;align=center;" vertex="1" parent="1">
          <mxGeometry x="640" y="840" width="100" height="40" as="geometry" />
        </mxCell>
        <mxCell id="Pr3GQYdpATsWxthIxdoF-69" value="Vegzettseg" style="ellipse;shape=doubleEllipse;margin=3;whiteSpace=wrap;html=1;align=center;" vertex="1" parent="1">
          <mxGeometry x="730" y="807" width="100" height="40" as="geometry" />
        </mxCell>
        <mxCell id="Pr3GQYdpATsWxthIxdoF-71" value="" style="whiteSpace=wrap;html=1;align=center;rotation=90;" vertex="1" parent="1">
          <mxGeometry x="666.25" y="910" width="47.5" height="32.5" as="geometry" />
        </mxCell>
        <mxCell id="Pr3GQYdpATsWxthIxdoF-72" value="" style="whiteSpace=wrap;html=1;align=center;rotation=90;" vertex="1" parent="1">
          <mxGeometry x="566.25" y="870" width="47.5" height="32.5" as="geometry" />
        </mxCell>
        <mxCell id="Pr3GQYdpATsWxthIxdoF-73" value="" style="whiteSpace=wrap;html=1;align=center;rotation=90;" vertex="1" parent="1">
          <mxGeometry x="756.25" y="870" width="47.5" height="32.5" as="geometry" />
        </mxCell>
        <mxCell id="Pr3GQYdpATsWxthIxdoF-74" value="" style="endArrow=none;html=1;rounded=0;exitX=0;exitY=0.5;exitDx=0;exitDy=0;entryX=0.5;entryY=1;entryDx=0;entryDy=0;" edge="1" parent="1" source="Pr3GQYdpATsWxthIxdoF-71" target="Pr3GQYdpATsWxthIxdoF-68">
          <mxGeometry relative="1" as="geometry">
            <mxPoint x="710" y="940" as="sourcePoint" />
            <mxPoint x="870" y="940" as="targetPoint" />
          </mxGeometry>
        </mxCell>
        <mxCell id="Pr3GQYdpATsWxthIxdoF-75" value="" style="endArrow=none;html=1;rounded=0;exitX=0.5;exitY=1;exitDx=0;exitDy=0;entryX=0.5;entryY=0;entryDx=0;entryDy=0;" edge="1" parent="1" source="Pr3GQYdpATsWxthIxdoF-5" target="Pr3GQYdpATsWxthIxdoF-69">
          <mxGeometry relative="1" as="geometry">
            <mxPoint x="710" y="940" as="sourcePoint" />
            <mxPoint x="870" y="940" as="targetPoint" />
          </mxGeometry>
        </mxCell>
        <mxCell id="Pr3GQYdpATsWxthIxdoF-76" value="" style="endArrow=none;html=1;rounded=0;exitX=0.5;exitY=0;exitDx=0;exitDy=0;entryX=0.5;entryY=1;entryDx=0;entryDy=0;" edge="1" parent="1" source="Pr3GQYdpATsWxthIxdoF-68" target="Pr3GQYdpATsWxthIxdoF-5">
          <mxGeometry relative="1" as="geometry">
            <mxPoint x="710" y="940" as="sourcePoint" />
            <mxPoint x="870" y="940" as="targetPoint" />
          </mxGeometry>
        </mxCell>
        <mxCell id="Pr3GQYdpATsWxthIxdoF-77" value="" style="endArrow=none;html=1;rounded=0;exitX=0.5;exitY=1;exitDx=0;exitDy=0;entryX=0.5;entryY=0;entryDx=0;entryDy=0;" edge="1" parent="1" source="Pr3GQYdpATsWxthIxdoF-5" target="Pr3GQYdpATsWxthIxdoF-67">
          <mxGeometry relative="1" as="geometry">
            <mxPoint x="710" y="940" as="sourcePoint" />
            <mxPoint x="870" y="940" as="targetPoint" />
          </mxGeometry>
        </mxCell>
        <mxCell id="Pr3GQYdpATsWxthIxdoF-78" value="" style="endArrow=none;html=1;rounded=0;exitX=1;exitY=0.5;exitDx=0;exitDy=0;entryX=0;entryY=0.5;entryDx=0;entryDy=0;" edge="1" parent="1" source="Pr3GQYdpATsWxthIxdoF-20" target="Pr3GQYdpATsWxthIxdoF-5">
          <mxGeometry relative="1" as="geometry">
            <mxPoint x="710" y="940" as="sourcePoint" />
            <mxPoint x="870" y="940" as="targetPoint" />
          </mxGeometry>
        </mxCell>
        <mxCell id="Pr3GQYdpATsWxthIxdoF-79" value="" style="endArrow=none;html=1;rounded=0;entryX=0;entryY=0.5;entryDx=0;entryDy=0;exitX=1;exitY=0.5;exitDx=0;exitDy=0;" edge="1" parent="1" source="Pr3GQYdpATsWxthIxdoF-5" target="Pr3GQYdpATsWxthIxdoF-29">
          <mxGeometry relative="1" as="geometry">
            <mxPoint x="710" y="940" as="sourcePoint" />
            <mxPoint x="870" y="940" as="targetPoint" />
          </mxGeometry>
        </mxCell>
        <mxCell id="Pr3GQYdpATsWxthIxdoF-80" value="" style="endArrow=none;html=1;rounded=0;exitX=1;exitY=0.5;exitDx=0;exitDy=0;entryX=0;entryY=0.5;entryDx=0;entryDy=0;" edge="1" parent="1" source="Pr3GQYdpATsWxthIxdoF-21" target="Pr3GQYdpATsWxthIxdoF-6">
          <mxGeometry relative="1" as="geometry">
            <mxPoint x="740" y="940" as="sourcePoint" />
            <mxPoint x="900" y="940" as="targetPoint" />
          </mxGeometry>
        </mxCell>
        <mxCell id="Pr3GQYdpATsWxthIxdoF-81" value="" style="endArrow=none;html=1;rounded=0;exitX=0.5;exitY=1;exitDx=0;exitDy=0;entryX=0;entryY=0.5;entryDx=0;entryDy=0;" edge="1" parent="1" source="Pr3GQYdpATsWxthIxdoF-69" target="Pr3GQYdpATsWxthIxdoF-73">
          <mxGeometry relative="1" as="geometry">
            <mxPoint x="710" y="940" as="sourcePoint" />
            <mxPoint x="870" y="940" as="targetPoint" />
          </mxGeometry>
        </mxCell>
        <mxCell id="Pr3GQYdpATsWxthIxdoF-82" value="" style="endArrow=none;html=1;rounded=0;exitX=0.5;exitY=1;exitDx=0;exitDy=0;entryX=0;entryY=0.5;entryDx=0;entryDy=0;" edge="1" parent="1" source="Pr3GQYdpATsWxthIxdoF-67" target="Pr3GQYdpATsWxthIxdoF-72">
          <mxGeometry relative="1" as="geometry">
            <mxPoint x="710" y="940" as="sourcePoint" />
            <mxPoint x="870" y="940" as="targetPoint" />
          </mxGeometry>
        </mxCell>
        <mxCell id="Pr3GQYdpATsWxthIxdoF-83" value="" style="endArrow=none;dashed=1;html=1;dashPattern=1 3;strokeWidth=2;rounded=0;entryX=0.5;entryY=1;entryDx=0;entryDy=0;" edge="1" parent="1" target="Pr3GQYdpATsWxthIxdoF-29">
          <mxGeometry width="50" height="50" relative="1" as="geometry">
            <mxPoint x="835" y="1200" as="sourcePoint" />
            <mxPoint x="840" y="920" as="targetPoint" />
          </mxGeometry>
        </mxCell>
        <mxCell id="Pr3GQYdpATsWxthIxdoF-84" value="" style="endArrow=none;dashed=1;html=1;dashPattern=1 3;strokeWidth=2;rounded=0;" edge="1" parent="1">
          <mxGeometry width="50" height="50" relative="1" as="geometry">
            <mxPoint x="100" y="1200" as="sourcePoint" />
            <mxPoint x="840" y="1200" as="targetPoint" />
          </mxGeometry>
        </mxCell>
        <mxCell id="Pr3GQYdpATsWxthIxdoF-85" value="" style="endArrow=none;dashed=1;html=1;dashPattern=1 3;strokeWidth=2;rounded=0;exitX=0.5;exitY=1;exitDx=0;exitDy=0;" edge="1" parent="1" source="Pr3GQYdpATsWxthIxdoF-21">
          <mxGeometry width="50" height="50" relative="1" as="geometry">
            <mxPoint x="790" y="970" as="sourcePoint" />
            <mxPoint x="100" y="1200" as="targetPoint" />
          </mxGeometry>
        </mxCell>
        <mxCell id="Pr3GQYdpATsWxthIxdoF-86" value="" style="endArrow=classic;html=1;rounded=0;entryX=0.5;entryY=1;entryDx=0;entryDy=0;" edge="1" parent="1" target="Pr3GQYdpATsWxthIxdoF-21">
          <mxGeometry width="50" height="50" relative="1" as="geometry">
            <mxPoint x="105" y="790" as="sourcePoint" />
            <mxPoint x="840" y="920" as="targetPoint" />
          </mxGeometry>
        </mxCell>
        <mxCell id="Pr3GQYdpATsWxthIxdoF-88" value="" style="endArrow=none;dashed=1;html=1;dashPattern=1 3;strokeWidth=2;rounded=0;entryX=0.5;entryY=1;entryDx=0;entryDy=0;" edge="1" parent="1" target="Pr3GQYdpATsWxthIxdoF-28">
          <mxGeometry width="50" height="50" relative="1" as="geometry">
            <mxPoint x="1160" y="1240" as="sourcePoint" />
            <mxPoint x="840" y="920" as="targetPoint" />
          </mxGeometry>
        </mxCell>
        <mxCell id="Pr3GQYdpATsWxthIxdoF-89" value="" style="endArrow=none;dashed=1;html=1;dashPattern=1 3;strokeWidth=2;rounded=0;" edge="1" parent="1">
          <mxGeometry width="50" height="50" relative="1" as="geometry">
            <mxPoint x="1160" y="1240" as="sourcePoint" />
            <mxPoint x="70" y="1230" as="targetPoint" />
          </mxGeometry>
        </mxCell>
        <mxCell id="Pr3GQYdpATsWxthIxdoF-90" value="" style="endArrow=none;dashed=1;html=1;dashPattern=1 3;strokeWidth=2;rounded=0;entryX=0;entryY=0.5;entryDx=0;entryDy=0;" edge="1" parent="1" target="Pr3GQYdpATsWxthIxdoF-21">
          <mxGeometry width="50" height="50" relative="1" as="geometry">
            <mxPoint x="70" y="1230" as="sourcePoint" />
            <mxPoint x="840" y="920" as="targetPoint" />
          </mxGeometry>
        </mxCell>
        <mxCell id="Pr3GQYdpATsWxthIxdoF-91" value="" style="endArrow=classic;html=1;rounded=0;entryX=0;entryY=0.5;entryDx=0;entryDy=0;" edge="1" parent="1" target="Pr3GQYdpATsWxthIxdoF-21">
          <mxGeometry width="50" height="50" relative="1" as="geometry">
            <mxPoint x="70" y="760" as="sourcePoint" />
            <mxPoint x="840" y="920" as="targetPoint" />
          </mxGeometry>
        </mxCell>
        <mxCell id="Pr3GQYdpATsWxthIxdoF-92" value="" style="endArrow=none;html=1;rounded=0;entryX=0;entryY=0.5;entryDx=0;entryDy=0;exitX=1;exitY=0.5;exitDx=0;exitDy=0;" edge="1" parent="1" source="Pr3GQYdpATsWxthIxdoF-4" target="Pr3GQYdpATsWxthIxdoF-28">
          <mxGeometry relative="1" as="geometry">
            <mxPoint x="740" y="940" as="sourcePoint" />
            <mxPoint x="900" y="940" as="targetPoint" />
          </mxGeometry>
        </mxCell>
        <mxCell id="Pr3GQYdpATsWxthIxdoF-93" value="" style="endArrow=none;html=1;rounded=0;entryX=0.5;entryY=1;entryDx=0;entryDy=0;exitX=0.5;exitY=0;exitDx=0;exitDy=0;" edge="1" parent="1" source="Pr3GQYdpATsWxthIxdoF-45" target="Pr3GQYdpATsWxthIxdoF-4">
          <mxGeometry relative="1" as="geometry">
            <mxPoint x="740" y="940" as="sourcePoint" />
            <mxPoint x="900" y="940" as="targetPoint" />
          </mxGeometry>
        </mxCell>
        <mxCell id="Pr3GQYdpATsWxthIxdoF-94" value="" style="endArrow=none;html=1;rounded=0;entryX=0.5;entryY=1;entryDx=0;entryDy=0;exitX=0.5;exitY=0;exitDx=0;exitDy=0;" edge="1" parent="1" source="Pr3GQYdpATsWxthIxdoF-43" target="Pr3GQYdpATsWxthIxdoF-4">
          <mxGeometry relative="1" as="geometry">
            <mxPoint x="740" y="940" as="sourcePoint" />
            <mxPoint x="900" y="940" as="targetPoint" />
          </mxGeometry>
        </mxCell>
        <mxCell id="Pr3GQYdpATsWxthIxdoF-95" value="" style="endArrow=none;html=1;rounded=0;entryX=0.5;entryY=1;entryDx=0;entryDy=0;exitX=0.5;exitY=0;exitDx=0;exitDy=0;" edge="1" parent="1" source="Pr3GQYdpATsWxthIxdoF-44" target="Pr3GQYdpATsWxthIxdoF-4">
          <mxGeometry relative="1" as="geometry">
            <mxPoint x="740" y="940" as="sourcePoint" />
            <mxPoint x="900" y="940" as="targetPoint" />
          </mxGeometry>
        </mxCell>
        <mxCell id="Pr3GQYdpATsWxthIxdoF-96" value="" style="endArrow=none;html=1;rounded=0;entryX=0;entryY=0.5;entryDx=0;entryDy=0;exitX=1;exitY=0.5;exitDx=0;exitDy=0;" edge="1" parent="1" source="Pr3GQYdpATsWxthIxdoF-26" target="Pr3GQYdpATsWxthIxdoF-4">
          <mxGeometry relative="1" as="geometry">
            <mxPoint x="740" y="940" as="sourcePoint" />
            <mxPoint x="900" y="940" as="targetPoint" />
          </mxGeometry>
        </mxCell>
        <mxCell id="Pr3GQYdpATsWxthIxdoF-97" value="" style="whiteSpace=wrap;html=1;align=center;rotation=90;" vertex="1" parent="1">
          <mxGeometry x="1076.25" y="877.5" width="47.5" height="32.5" as="geometry" />
        </mxCell>
        <mxCell id="Pr3GQYdpATsWxthIxdoF-98" value="" style="whiteSpace=wrap;html=1;align=center;rotation=90;" vertex="1" parent="1">
          <mxGeometry x="990" y="935" width="47.5" height="32.5" as="geometry" />
        </mxCell>
        <mxCell id="Pr3GQYdpATsWxthIxdoF-99" value="" style="whiteSpace=wrap;html=1;align=center;rotation=90;" vertex="1" parent="1">
          <mxGeometry x="916.25" y="877.5" width="47.5" height="32.5" as="geometry" />
        </mxCell>
        <mxCell id="Pr3GQYdpATsWxthIxdoF-101" value="" style="endArrow=none;html=1;rounded=0;entryX=0.5;entryY=1;entryDx=0;entryDy=0;exitX=0;exitY=0.5;exitDx=0;exitDy=0;" edge="1" parent="1" source="Pr3GQYdpATsWxthIxdoF-97" target="Pr3GQYdpATsWxthIxdoF-45">
          <mxGeometry relative="1" as="geometry">
            <mxPoint x="740" y="940" as="sourcePoint" />
            <mxPoint x="900" y="940" as="targetPoint" />
          </mxGeometry>
        </mxCell>
        <mxCell id="Pr3GQYdpATsWxthIxdoF-102" value="" style="endArrow=none;html=1;rounded=0;exitX=0;exitY=0.5;exitDx=0;exitDy=0;entryX=0.5;entryY=1;entryDx=0;entryDy=0;" edge="1" parent="1" source="Pr3GQYdpATsWxthIxdoF-98" target="Pr3GQYdpATsWxthIxdoF-43">
          <mxGeometry relative="1" as="geometry">
            <mxPoint x="740" y="940" as="sourcePoint" />
            <mxPoint x="1030" y="902" as="targetPoint" />
          </mxGeometry>
        </mxCell>
        <mxCell id="Pr3GQYdpATsWxthIxdoF-103" value="" style="endArrow=none;html=1;rounded=0;entryX=0.5;entryY=1;entryDx=0;entryDy=0;exitX=0;exitY=0.5;exitDx=0;exitDy=0;" edge="1" parent="1" source="Pr3GQYdpATsWxthIxdoF-99" target="Pr3GQYdpATsWxthIxdoF-44">
          <mxGeometry relative="1" as="geometry">
            <mxPoint x="740" y="940" as="sourcePoint" />
            <mxPoint x="900" y="940" as="targetPoint" />
          </mxGeometry>
        </mxCell>
        <mxCell id="Pr3GQYdpATsWxthIxdoF-106" value="Attribute" style="ellipse;whiteSpace=wrap;html=1;align=center;" vertex="1" parent="1">
          <mxGeometry x="1390" y="960" width="100" height="40" as="geometry" />
        </mxCell>
        <mxCell id="Pr3GQYdpATsWxthIxdoF-107" value="Attribute" style="ellipse;whiteSpace=wrap;html=1;align=center;" vertex="1" parent="1">
          <mxGeometry x="1240" y="960" width="100" height="40" as="geometry" />
        </mxCell>
        <mxCell id="Pr3GQYdpATsWxthIxdoF-108" value="Attribute" style="ellipse;whiteSpace=wrap;html=1;align=center;" vertex="1" parent="1">
          <mxGeometry x="1310" y="877.5" width="100" height="40" as="geometry" />
        </mxCell>
        <mxCell id="Pr3GQYdpATsWxthIxdoF-109" value="Attribute" style="ellipse;whiteSpace=wrap;html=1;align=center;" vertex="1" parent="1">
          <mxGeometry x="1210" y="807" width="100" height="40" as="geometry" />
        </mxCell>
        <mxCell id="Pr3GQYdpATsWxthIxdoF-110" value="Attribute" style="ellipse;shape=doubleEllipse;margin=3;whiteSpace=wrap;html=1;align=center;" vertex="1" parent="1">
          <mxGeometry x="1390" y="807" width="100" height="40" as="geometry" />
        </mxCell>
        <mxCell id="Pr3GQYdpATsWxthIxdoF-111" value="" style="endArrow=none;dashed=1;html=1;dashPattern=1 3;strokeWidth=2;rounded=0;entryX=0.5;entryY=1;entryDx=0;entryDy=0;" edge="1" parent="1" target="Pr3GQYdpATsWxthIxdoF-24">
          <mxGeometry width="50" height="50" relative="1" as="geometry">
            <mxPoint x="1515" y="1280" as="sourcePoint" />
            <mxPoint x="1030" y="960" as="targetPoint" />
          </mxGeometry>
        </mxCell>
        <mxCell id="Pr3GQYdpATsWxthIxdoF-112" value="" style="endArrow=none;dashed=1;html=1;dashPattern=1 3;strokeWidth=2;rounded=0;" edge="1" parent="1">
          <mxGeometry width="50" height="50" relative="1" as="geometry">
            <mxPoint x="50" y="1280" as="sourcePoint" />
            <mxPoint x="1520" y="1280" as="targetPoint" />
          </mxGeometry>
        </mxCell>
        <mxCell id="Pr3GQYdpATsWxthIxdoF-113" value="" style="endArrow=none;dashed=1;html=1;dashPattern=1 3;strokeWidth=2;rounded=0;entryX=0;entryY=0.5;entryDx=0;entryDy=0;" edge="1" parent="1" target="Pr3GQYdpATsWxthIxdoF-21">
          <mxGeometry width="50" height="50" relative="1" as="geometry">
            <mxPoint x="50" y="740" as="sourcePoint" />
            <mxPoint x="1030" y="960" as="targetPoint" />
          </mxGeometry>
        </mxCell>
        <mxCell id="Pr3GQYdpATsWxthIxdoF-114" value="" style="endArrow=none;dashed=1;html=1;dashPattern=1 3;strokeWidth=2;rounded=0;" edge="1" parent="1">
          <mxGeometry width="50" height="50" relative="1" as="geometry">
            <mxPoint x="50" y="1280" as="sourcePoint" />
            <mxPoint x="50" y="730" as="targetPoint" />
          </mxGeometry>
        </mxCell>
        <mxCell id="Pr3GQYdpATsWxthIxdoF-115" value="" style="endArrow=classic;html=1;rounded=0;" edge="1" parent="1">
          <mxGeometry width="50" height="50" relative="1" as="geometry">
            <mxPoint x="50" y="740" as="sourcePoint" />
            <mxPoint x="70" y="740" as="targetPoint" />
          </mxGeometry>
        </mxCell>
        <mxCell id="Pr3GQYdpATsWxthIxdoF-116" value="" style="whiteSpace=wrap;html=1;align=center;rotation=90;" vertex="1" parent="1">
          <mxGeometry x="1416.25" y="885" width="47.5" height="32.5" as="geometry" />
        </mxCell>
        <mxCell id="Pr3GQYdpATsWxthIxdoF-117" value="" style="whiteSpace=wrap;html=1;align=center;rotation=90;" vertex="1" parent="1">
          <mxGeometry x="1236.25" y="885" width="47.5" height="32.5" as="geometry" />
        </mxCell>
        <mxCell id="Pr3GQYdpATsWxthIxdoF-118" value="" style="whiteSpace=wrap;html=1;align=center;rotation=90;" vertex="1" parent="1">
          <mxGeometry x="1416.25" y="1030" width="47.5" height="32.5" as="geometry" />
        </mxCell>
        <mxCell id="Pr3GQYdpATsWxthIxdoF-119" value="" style="whiteSpace=wrap;html=1;align=center;rotation=90;" vertex="1" parent="1">
          <mxGeometry x="1266.25" y="1030" width="47.5" height="32.5" as="geometry" />
        </mxCell>
        <mxCell id="Pr3GQYdpATsWxthIxdoF-121" value="" style="endArrow=none;html=1;rounded=0;entryX=0.5;entryY=1;entryDx=0;entryDy=0;exitX=0.5;exitY=0;exitDx=0;exitDy=0;" edge="1" parent="1" source="Pr3GQYdpATsWxthIxdoF-107" target="Pr3GQYdpATsWxthIxdoF-108">
          <mxGeometry relative="1" as="geometry">
            <mxPoint x="920" y="990" as="sourcePoint" />
            <mxPoint x="1080" y="990" as="targetPoint" />
          </mxGeometry>
        </mxCell>
        <mxCell id="Pr3GQYdpATsWxthIxdoF-122" value="" style="endArrow=none;html=1;rounded=0;entryX=0.5;entryY=1;entryDx=0;entryDy=0;exitX=0.5;exitY=0;exitDx=0;exitDy=0;" edge="1" parent="1" source="Pr3GQYdpATsWxthIxdoF-108" target="Pr3GQYdpATsWxthIxdoF-3">
          <mxGeometry relative="1" as="geometry">
            <mxPoint x="920" y="990" as="sourcePoint" />
            <mxPoint x="1080" y="990" as="targetPoint" />
          </mxGeometry>
        </mxCell>
        <mxCell id="Pr3GQYdpATsWxthIxdoF-123" value="" style="endArrow=none;html=1;rounded=0;entryX=0.5;entryY=1;entryDx=0;entryDy=0;exitX=0.5;exitY=0;exitDx=0;exitDy=0;" edge="1" parent="1" source="Pr3GQYdpATsWxthIxdoF-110" target="Pr3GQYdpATsWxthIxdoF-3">
          <mxGeometry relative="1" as="geometry">
            <mxPoint x="920" y="990" as="sourcePoint" />
            <mxPoint x="1080" y="990" as="targetPoint" />
          </mxGeometry>
        </mxCell>
        <mxCell id="Pr3GQYdpATsWxthIxdoF-124" value="" style="endArrow=none;html=1;rounded=0;entryX=0.5;entryY=1;entryDx=0;entryDy=0;exitX=0.5;exitY=0;exitDx=0;exitDy=0;" edge="1" parent="1" source="Pr3GQYdpATsWxthIxdoF-109" target="Pr3GQYdpATsWxthIxdoF-3">
          <mxGeometry relative="1" as="geometry">
            <mxPoint x="920" y="990" as="sourcePoint" />
            <mxPoint x="1080" y="990" as="targetPoint" />
          </mxGeometry>
        </mxCell>
        <mxCell id="Pr3GQYdpATsWxthIxdoF-125" value="" style="endArrow=none;html=1;rounded=0;entryX=0;entryY=0.5;entryDx=0;entryDy=0;exitX=1;exitY=0.5;exitDx=0;exitDy=0;" edge="1" parent="1" source="Pr3GQYdpATsWxthIxdoF-3" target="Pr3GQYdpATsWxthIxdoF-24">
          <mxGeometry relative="1" as="geometry">
            <mxPoint x="920" y="990" as="sourcePoint" />
            <mxPoint x="1080" y="990" as="targetPoint" />
          </mxGeometry>
        </mxCell>
        <mxCell id="Pr3GQYdpATsWxthIxdoF-126" value="" style="endArrow=none;html=1;rounded=0;entryX=0;entryY=0.5;entryDx=0;entryDy=0;exitX=1;exitY=0.5;exitDx=0;exitDy=0;" edge="1" parent="1" source="Pr3GQYdpATsWxthIxdoF-25" target="Pr3GQYdpATsWxthIxdoF-3">
          <mxGeometry relative="1" as="geometry">
            <mxPoint x="920" y="990" as="sourcePoint" />
            <mxPoint x="1080" y="990" as="targetPoint" />
          </mxGeometry>
        </mxCell>
        <mxCell id="Pr3GQYdpATsWxthIxdoF-127" value="" style="endArrow=none;html=1;rounded=0;entryX=0.5;entryY=1;entryDx=0;entryDy=0;exitX=0;exitY=0.5;exitDx=0;exitDy=0;" edge="1" parent="1" source="Pr3GQYdpATsWxthIxdoF-118" target="Pr3GQYdpATsWxthIxdoF-106">
          <mxGeometry relative="1" as="geometry">
            <mxPoint x="920" y="990" as="sourcePoint" />
            <mxPoint x="1080" y="990" as="targetPoint" />
          </mxGeometry>
        </mxCell>
        <mxCell id="Pr3GQYdpATsWxthIxdoF-128" value="" style="endArrow=none;html=1;rounded=0;entryX=0.5;entryY=1;entryDx=0;entryDy=0;exitX=0;exitY=0.5;exitDx=0;exitDy=0;" edge="1" parent="1" source="Pr3GQYdpATsWxthIxdoF-119" target="Pr3GQYdpATsWxthIxdoF-107">
          <mxGeometry relative="1" as="geometry">
            <mxPoint x="920" y="990" as="sourcePoint" />
            <mxPoint x="1080" y="990" as="targetPoint" />
          </mxGeometry>
        </mxCell>
        <mxCell id="Pr3GQYdpATsWxthIxdoF-129" value="" style="endArrow=none;html=1;rounded=0;entryX=0.5;entryY=1;entryDx=0;entryDy=0;" edge="1" parent="1" source="Pr3GQYdpATsWxthIxdoF-116" target="Pr3GQYdpATsWxthIxdoF-110">
          <mxGeometry relative="1" as="geometry">
            <mxPoint x="920" y="990" as="sourcePoint" />
            <mxPoint x="1080" y="990" as="targetPoint" />
          </mxGeometry>
        </mxCell>
        <mxCell id="Pr3GQYdpATsWxthIxdoF-130" value="" style="endArrow=none;html=1;rounded=0;entryX=0.5;entryY=1;entryDx=0;entryDy=0;exitX=0;exitY=0.5;exitDx=0;exitDy=0;" edge="1" parent="1" source="Pr3GQYdpATsWxthIxdoF-117" target="Pr3GQYdpATsWxthIxdoF-109">
          <mxGeometry relative="1" as="geometry">
            <mxPoint x="920" y="990" as="sourcePoint" />
            <mxPoint x="1080" y="990" as="targetPoint" />
          </mxGeometry>
        </mxCell>
        <mxCell id="Pr3GQYdpATsWxthIxdoF-131" value="" style="endArrow=none;html=1;rounded=0;entryX=0.5;entryY=1;entryDx=0;entryDy=0;exitX=0.5;exitY=0;exitDx=0;exitDy=0;" edge="1" parent="1" source="Pr3GQYdpATsWxthIxdoF-106" target="Pr3GQYdpATsWxthIxdoF-108">
          <mxGeometry relative="1" as="geometry">
            <mxPoint x="920" y="990" as="sourcePoint" />
            <mxPoint x="1080" y="990" as="targetPoint" />
          </mxGeometry>
        </mxCell>
        <mxCell id="Pr3GQYdpATsWxthIxdoF-134" value="Etel" style="ellipse;whiteSpace=wrap;html=1;align=center;" vertex="1" parent="1">
          <mxGeometry x="2090" y="807" width="100" height="40" as="geometry" />
        </mxCell>
        <mxCell id="Pr3GQYdpATsWxthIxdoF-135" value="Osszeg" style="ellipse;whiteSpace=wrap;html=1;align=center;" vertex="1" parent="1">
          <mxGeometry x="1950" y="807" width="100" height="40" as="geometry" />
        </mxCell>
        <mxCell id="Pr3GQYdpATsWxthIxdoF-136" value="Utca" style="ellipse;whiteSpace=wrap;html=1;align=center;" vertex="1" parent="1">
          <mxGeometry x="1790" y="967.5" width="100" height="40" as="geometry" />
        </mxCell>
        <mxCell id="Pr3GQYdpATsWxthIxdoF-137" value="Hazszam" style="ellipse;whiteSpace=wrap;html=1;align=center;" vertex="1" parent="1">
          <mxGeometry x="1720" y="1030" width="100" height="40" as="geometry" />
        </mxCell>
        <mxCell id="Pr3GQYdpATsWxthIxdoF-138" value="Varos" style="ellipse;whiteSpace=wrap;html=1;align=center;" vertex="1" parent="1">
          <mxGeometry x="1640" y="967.5" width="100" height="40" as="geometry" />
        </mxCell>
        <mxCell id="Pr3GQYdpATsWxthIxdoF-139" value="eletkor" style="ellipse;whiteSpace=wrap;html=1;align=center;" vertex="1" parent="1">
          <mxGeometry x="1790" y="807" width="100" height="40" as="geometry" />
        </mxCell>
        <mxCell id="Pr3GQYdpATsWxthIxdoF-140" value="Cim" style="ellipse;whiteSpace=wrap;html=1;align=center;" vertex="1" parent="1">
          <mxGeometry x="1730" y="862.5" width="100" height="40" as="geometry" />
        </mxCell>
        <mxCell id="Pr3GQYdpATsWxthIxdoF-141" value="Nev" style="ellipse;whiteSpace=wrap;html=1;align=center;" vertex="1" parent="1">
          <mxGeometry x="1640" y="807" width="100" height="40" as="geometry" />
        </mxCell>
        <mxCell id="Pr3GQYdpATsWxthIxdoF-144" value="" style="endArrow=none;html=1;rounded=0;entryX=0.5;entryY=1;entryDx=0;entryDy=0;exitX=0.5;exitY=0;exitDx=0;exitDy=0;" edge="1" parent="1" source="Pr3GQYdpATsWxthIxdoF-134" target="Pr3GQYdpATsWxthIxdoF-1">
          <mxGeometry relative="1" as="geometry">
            <mxPoint x="1310" y="990" as="sourcePoint" />
            <mxPoint x="1470" y="990" as="targetPoint" />
          </mxGeometry>
        </mxCell>
        <mxCell id="Pr3GQYdpATsWxthIxdoF-145" value="" style="endArrow=none;html=1;rounded=0;entryX=0.5;entryY=1;entryDx=0;entryDy=0;exitX=0.5;exitY=0;exitDx=0;exitDy=0;" edge="1" parent="1" source="Pr3GQYdpATsWxthIxdoF-135" target="Pr3GQYdpATsWxthIxdoF-1">
          <mxGeometry relative="1" as="geometry">
            <mxPoint x="1310" y="990" as="sourcePoint" />
            <mxPoint x="1470" y="990" as="targetPoint" />
          </mxGeometry>
        </mxCell>
        <mxCell id="Pr3GQYdpATsWxthIxdoF-146" value="" style="endArrow=none;html=1;rounded=0;entryX=0.5;entryY=1;entryDx=0;entryDy=0;exitX=0.5;exitY=0;exitDx=0;exitDy=0;" edge="1" parent="1" source="Pr3GQYdpATsWxthIxdoF-137" target="Pr3GQYdpATsWxthIxdoF-140">
          <mxGeometry relative="1" as="geometry">
            <mxPoint x="1310" y="990" as="sourcePoint" />
            <mxPoint x="1470" y="990" as="targetPoint" />
          </mxGeometry>
        </mxCell>
        <mxCell id="Pr3GQYdpATsWxthIxdoF-147" value="" style="endArrow=none;html=1;rounded=0;entryX=0.5;entryY=1;entryDx=0;entryDy=0;exitX=0.5;exitY=0;exitDx=0;exitDy=0;" edge="1" parent="1" source="Pr3GQYdpATsWxthIxdoF-136" target="Pr3GQYdpATsWxthIxdoF-140">
          <mxGeometry relative="1" as="geometry">
            <mxPoint x="1310" y="990" as="sourcePoint" />
            <mxPoint x="1470" y="990" as="targetPoint" />
          </mxGeometry>
        </mxCell>
        <mxCell id="Pr3GQYdpATsWxthIxdoF-148" value="" style="endArrow=none;html=1;rounded=0;entryX=0.5;entryY=1;entryDx=0;entryDy=0;exitX=0.5;exitY=0;exitDx=0;exitDy=0;" edge="1" parent="1" source="Pr3GQYdpATsWxthIxdoF-138" target="Pr3GQYdpATsWxthIxdoF-140">
          <mxGeometry relative="1" as="geometry">
            <mxPoint x="1310" y="990" as="sourcePoint" />
            <mxPoint x="1470" y="990" as="targetPoint" />
          </mxGeometry>
        </mxCell>
        <mxCell id="Pr3GQYdpATsWxthIxdoF-149" value="" style="endArrow=none;html=1;rounded=0;entryX=0.5;entryY=1;entryDx=0;entryDy=0;exitX=0.5;exitY=0;exitDx=0;exitDy=0;" edge="1" parent="1" source="Pr3GQYdpATsWxthIxdoF-139" target="Pr3GQYdpATsWxthIxdoF-2">
          <mxGeometry relative="1" as="geometry">
            <mxPoint x="1310" y="990" as="sourcePoint" />
            <mxPoint x="1470" y="990" as="targetPoint" />
          </mxGeometry>
        </mxCell>
        <mxCell id="Pr3GQYdpATsWxthIxdoF-150" value="" style="endArrow=none;html=1;rounded=0;entryX=0.5;entryY=1;entryDx=0;entryDy=0;exitX=0.5;exitY=0;exitDx=0;exitDy=0;" edge="1" parent="1" source="Pr3GQYdpATsWxthIxdoF-140" target="Pr3GQYdpATsWxthIxdoF-2">
          <mxGeometry relative="1" as="geometry">
            <mxPoint x="1310" y="990" as="sourcePoint" />
            <mxPoint x="1470" y="990" as="targetPoint" />
          </mxGeometry>
        </mxCell>
        <mxCell id="Pr3GQYdpATsWxthIxdoF-151" value="" style="endArrow=none;html=1;rounded=0;entryX=0.5;entryY=1;entryDx=0;entryDy=0;exitX=0.5;exitY=0;exitDx=0;exitDy=0;" edge="1" parent="1" source="Pr3GQYdpATsWxthIxdoF-141" target="Pr3GQYdpATsWxthIxdoF-2">
          <mxGeometry relative="1" as="geometry">
            <mxPoint x="1310" y="990" as="sourcePoint" />
            <mxPoint x="1470" y="990" as="targetPoint" />
          </mxGeometry>
        </mxCell>
        <mxCell id="Pr3GQYdpATsWxthIxdoF-152" value="" style="endArrow=none;html=1;rounded=0;entryX=0;entryY=0.5;entryDx=0;entryDy=0;exitX=1;exitY=0.5;exitDx=0;exitDy=0;" edge="1" parent="1" source="Pr3GQYdpATsWxthIxdoF-23" target="Pr3GQYdpATsWxthIxdoF-2">
          <mxGeometry relative="1" as="geometry">
            <mxPoint x="1310" y="990" as="sourcePoint" />
            <mxPoint x="1470" y="990" as="targetPoint" />
          </mxGeometry>
        </mxCell>
        <mxCell id="Pr3GQYdpATsWxthIxdoF-153" value="" style="endArrow=none;html=1;rounded=0;entryX=0;entryY=0.5;entryDx=0;entryDy=0;exitX=1;exitY=0.5;exitDx=0;exitDy=0;" edge="1" parent="1" source="Pr3GQYdpATsWxthIxdoF-22" target="Pr3GQYdpATsWxthIxdoF-1">
          <mxGeometry relative="1" as="geometry">
            <mxPoint x="1310" y="990" as="sourcePoint" />
            <mxPoint x="1470" y="990" as="targetPoint" />
          </mxGeometry>
        </mxCell>
        <mxCell id="Pr3GQYdpATsWxthIxdoF-154" value="" style="endArrow=none;html=1;rounded=0;entryX=0;entryY=0.5;entryDx=0;entryDy=0;exitX=1;exitY=0.5;exitDx=0;exitDy=0;" edge="1" parent="1" source="Pr3GQYdpATsWxthIxdoF-1" target="Pr3GQYdpATsWxthIxdoF-27">
          <mxGeometry relative="1" as="geometry">
            <mxPoint x="1310" y="990" as="sourcePoint" />
            <mxPoint x="1470" y="990" as="targetPoint" />
          </mxGeometry>
        </mxCell>
        <mxCell id="Pr3GQYdpATsWxthIxdoF-155" value="" style="whiteSpace=wrap;html=1;align=center;rotation=90;" vertex="1" parent="1">
          <mxGeometry x="1976.25" y="890" width="47.5" height="32.5" as="geometry" />
        </mxCell>
        <mxCell id="Pr3GQYdpATsWxthIxdoF-156" value="" style="whiteSpace=wrap;html=1;align=center;rotation=90;" vertex="1" parent="1">
          <mxGeometry x="1666.25" y="877.5" width="47.5" height="32.5" as="geometry" />
        </mxCell>
        <mxCell id="Pr3GQYdpATsWxthIxdoF-157" value="" style="whiteSpace=wrap;html=1;align=center;rotation=90;" vertex="1" parent="1">
          <mxGeometry x="1666.25" y="1037.5" width="47.5" height="32.5" as="geometry" />
        </mxCell>
        <mxCell id="Pr3GQYdpATsWxthIxdoF-158" value="" style="whiteSpace=wrap;html=1;align=center;rotation=90;" vertex="1" parent="1">
          <mxGeometry x="2116.25" y="890" width="47.5" height="32.5" as="geometry" />
        </mxCell>
        <mxCell id="Pr3GQYdpATsWxthIxdoF-159" value="" style="whiteSpace=wrap;html=1;align=center;rotation=90;" vertex="1" parent="1">
          <mxGeometry x="1830" y="1037.5" width="47.5" height="32.5" as="geometry" />
        </mxCell>
        <mxCell id="Pr3GQYdpATsWxthIxdoF-160" value="" style="whiteSpace=wrap;html=1;align=center;rotation=90;" vertex="1" parent="1">
          <mxGeometry x="1830" y="870" width="47.5" height="32.5" as="geometry" />
        </mxCell>
        <mxCell id="Pr3GQYdpATsWxthIxdoF-161" value="" style="endArrow=none;html=1;rounded=0;entryX=0.5;entryY=1;entryDx=0;entryDy=0;exitX=0;exitY=0.5;exitDx=0;exitDy=0;" edge="1" parent="1" source="Pr3GQYdpATsWxthIxdoF-158" target="Pr3GQYdpATsWxthIxdoF-134">
          <mxGeometry relative="1" as="geometry">
            <mxPoint x="1310" y="990" as="sourcePoint" />
            <mxPoint x="1470" y="990" as="targetPoint" />
          </mxGeometry>
        </mxCell>
        <mxCell id="Pr3GQYdpATsWxthIxdoF-162" value="" style="endArrow=none;html=1;rounded=0;entryX=0.5;entryY=1;entryDx=0;entryDy=0;exitX=0;exitY=0.5;exitDx=0;exitDy=0;" edge="1" parent="1" source="Pr3GQYdpATsWxthIxdoF-155" target="Pr3GQYdpATsWxthIxdoF-135">
          <mxGeometry relative="1" as="geometry">
            <mxPoint x="1310" y="990" as="sourcePoint" />
            <mxPoint x="1470" y="990" as="targetPoint" />
          </mxGeometry>
        </mxCell>
        <mxCell id="Pr3GQYdpATsWxthIxdoF-163" value="" style="endArrow=none;html=1;rounded=0;entryX=0.5;entryY=1;entryDx=0;entryDy=0;exitX=0;exitY=0.5;exitDx=0;exitDy=0;" edge="1" parent="1" source="Pr3GQYdpATsWxthIxdoF-159" target="Pr3GQYdpATsWxthIxdoF-136">
          <mxGeometry relative="1" as="geometry">
            <mxPoint x="1310" y="990" as="sourcePoint" />
            <mxPoint x="1470" y="990" as="targetPoint" />
          </mxGeometry>
        </mxCell>
        <mxCell id="Pr3GQYdpATsWxthIxdoF-164" value="" style="endArrow=none;html=1;rounded=0;entryX=0.5;entryY=1;entryDx=0;entryDy=0;exitX=0;exitY=0.5;exitDx=0;exitDy=0;" edge="1" parent="1" source="Pr3GQYdpATsWxthIxdoF-168" target="Pr3GQYdpATsWxthIxdoF-137">
          <mxGeometry relative="1" as="geometry">
            <mxPoint x="1310" y="990" as="sourcePoint" />
            <mxPoint x="1470" y="990" as="targetPoint" />
          </mxGeometry>
        </mxCell>
        <mxCell id="Pr3GQYdpATsWxthIxdoF-165" value="" style="endArrow=none;html=1;rounded=0;entryX=0.5;entryY=1;entryDx=0;entryDy=0;exitX=0;exitY=0.5;exitDx=0;exitDy=0;" edge="1" parent="1" source="Pr3GQYdpATsWxthIxdoF-157" target="Pr3GQYdpATsWxthIxdoF-138">
          <mxGeometry relative="1" as="geometry">
            <mxPoint x="1310" y="990" as="sourcePoint" />
            <mxPoint x="1470" y="990" as="targetPoint" />
          </mxGeometry>
        </mxCell>
        <mxCell id="Pr3GQYdpATsWxthIxdoF-166" value="" style="endArrow=none;html=1;rounded=0;entryX=0.5;entryY=1;entryDx=0;entryDy=0;exitX=0;exitY=0.5;exitDx=0;exitDy=0;" edge="1" parent="1" source="Pr3GQYdpATsWxthIxdoF-160" target="Pr3GQYdpATsWxthIxdoF-139">
          <mxGeometry relative="1" as="geometry">
            <mxPoint x="1310" y="990" as="sourcePoint" />
            <mxPoint x="1470" y="990" as="targetPoint" />
          </mxGeometry>
        </mxCell>
        <mxCell id="Pr3GQYdpATsWxthIxdoF-167" value="" style="endArrow=none;html=1;rounded=0;entryX=0.5;entryY=1;entryDx=0;entryDy=0;exitX=0;exitY=0.5;exitDx=0;exitDy=0;" edge="1" parent="1" source="Pr3GQYdpATsWxthIxdoF-156" target="Pr3GQYdpATsWxthIxdoF-141">
          <mxGeometry relative="1" as="geometry">
            <mxPoint x="1310" y="990" as="sourcePoint" />
            <mxPoint x="1470" y="990" as="targetPoint" />
          </mxGeometry>
        </mxCell>
        <mxCell id="Pr3GQYdpATsWxthIxdoF-168" value="" style="whiteSpace=wrap;html=1;align=center;rotation=90;" vertex="1" parent="1">
          <mxGeometry x="1746.25" y="1102.5" width="47.5" height="32.5" as="geometry" />
        </mxCell>
        <mxCell id="Pr3GQYdpATsWxthIxdoF-169" value="" style="endArrow=none;dashed=1;html=1;dashPattern=1 3;strokeWidth=2;rounded=0;entryX=0.5;entryY=1;entryDx=0;entryDy=0;" edge="1" parent="1" target="Pr3GQYdpATsWxthIxdoF-23">
          <mxGeometry width="50" height="50" relative="1" as="geometry">
            <mxPoint x="1625" y="1200" as="sourcePoint" />
            <mxPoint x="1410" y="970" as="targetPoint" />
          </mxGeometry>
        </mxCell>
        <mxCell id="Pr3GQYdpATsWxthIxdoF-170" value="" style="endArrow=none;dashed=1;html=1;dashPattern=1 3;strokeWidth=2;rounded=0;entryX=0.5;entryY=1;entryDx=0;entryDy=0;" edge="1" parent="1" target="Pr3GQYdpATsWxthIxdoF-22">
          <mxGeometry width="50" height="50" relative="1" as="geometry">
            <mxPoint x="1905" y="1200" as="sourcePoint" />
            <mxPoint x="1410" y="970" as="targetPoint" />
          </mxGeometry>
        </mxCell>
        <mxCell id="Pr3GQYdpATsWxthIxdoF-171" value="" style="endArrow=none;dashed=1;html=1;dashPattern=1 3;strokeWidth=2;rounded=0;" edge="1" parent="1">
          <mxGeometry width="50" height="50" relative="1" as="geometry">
            <mxPoint x="1630" y="1200" as="sourcePoint" />
            <mxPoint x="1900" y="1200" as="targetPoint" />
          </mxGeometry>
        </mxCell>
        <mxCell id="Pr3GQYdpATsWxthIxdoF-172" value="" style="endArrow=classic;html=1;rounded=0;entryX=0.5;entryY=1;entryDx=0;entryDy=0;" edge="1" parent="1" target="Pr3GQYdpATsWxthIxdoF-23">
          <mxGeometry width="50" height="50" relative="1" as="geometry">
            <mxPoint x="1625" y="790" as="sourcePoint" />
            <mxPoint x="1410" y="970" as="targetPoint" />
          </mxGeometry>
        </mxCell>
        <mxCell id="Pr3GQYdpATsWxthIxdoF-173" value="" style="endArrow=none;dashed=1;html=1;dashPattern=1 3;strokeWidth=2;rounded=0;entryX=0.5;entryY=1;entryDx=0;entryDy=0;" edge="1" parent="1" target="Pr3GQYdpATsWxthIxdoF-27">
          <mxGeometry width="50" height="50" relative="1" as="geometry">
            <mxPoint x="2200" y="1320" as="sourcePoint" />
            <mxPoint x="1410" y="970" as="targetPoint" />
          </mxGeometry>
        </mxCell>
        <mxCell id="Pr3GQYdpATsWxthIxdoF-174" value="" style="endArrow=none;dashed=1;html=1;dashPattern=1 3;strokeWidth=2;rounded=0;" edge="1" parent="1">
          <mxGeometry width="50" height="50" relative="1" as="geometry">
            <mxPoint x="20" y="1320" as="sourcePoint" />
            <mxPoint x="2200" y="1320" as="targetPoint" />
          </mxGeometry>
        </mxCell>
        <mxCell id="Pr3GQYdpATsWxthIxdoF-175" value="" style="endArrow=none;dashed=1;html=1;dashPattern=1 3;strokeWidth=2;rounded=0;" edge="1" parent="1">
          <mxGeometry width="50" height="50" relative="1" as="geometry">
            <mxPoint x="20" y="1320" as="sourcePoint" />
            <mxPoint x="20" y="730" as="targetPoint" />
          </mxGeometry>
        </mxCell>
        <mxCell id="Pr3GQYdpATsWxthIxdoF-176" value="" style="endArrow=none;dashed=1;html=1;dashPattern=1 3;strokeWidth=2;rounded=0;entryX=0;entryY=0.5;entryDx=0;entryDy=0;" edge="1" parent="1" target="Pr3GQYdpATsWxthIxdoF-21">
          <mxGeometry width="50" height="50" relative="1" as="geometry">
            <mxPoint x="20" y="730" as="sourcePoint" />
            <mxPoint x="290" y="970" as="targetPoint" />
          </mxGeometry>
        </mxCell>
        <mxCell id="Pr3GQYdpATsWxthIxdoF-177" value="" style="endArrow=classic;html=1;rounded=0;entryX=0;entryY=0.5;entryDx=0;entryDy=0;" edge="1" parent="1" target="Pr3GQYdpATsWxthIxdoF-21">
          <mxGeometry width="50" height="50" relative="1" as="geometry">
            <mxPoint x="40" y="730" as="sourcePoint" />
            <mxPoint x="70" y="740" as="targetPoint" />
          </mxGeometry>
        </mxCell>
      </root>
    </mxGraphModel>
  </diagram>
</mxfile>
